# xmcd
#
# Track frame offsets:
#	150
#	37914
#	69806
#	104857
#	132627
#	165728
#	199844
#	244798
#	289903
#
# Disc length: 4406 seconds
#
# Revision: 1
# Processed by: cddbd v1.5.2PL0 Copyright (c) Steve Scherf et al.
# Submitted via: audiograbber 1.83.01
#
DISCID=86113409
DTITLE=Tab Benoit and Jimmy Thackery - Whiskey Store Live!
DYEAR=2004
DGENRE=Blues
TTITLE0=Freddy's Combo
TTITLE1=I Got Loaded
TTITLE2=Leopard-Skin Pill-Box Hat
TTITLE3=Bone Pickin'
TTITLE4=Away, Way Too Long
TTITLE5=Strange Things Happen
TTITLE6=Bayou Boogie
TTITLE7=These Arms Of Mine
TTITLE8=Whiskey Store
EXTD=
EXTT0=
EXTT1=
EXTT2=
EXTT3=
EXTT4=
EXTT5=
EXTT6=
EXTT7=
EXTT8=
PLAYORDER=
